<svg xmlns="http://www.w3.org/2000/svg" xmlns:xlink="http://www.w3.org/1999/xlink" viewBox="0 0 12.658 16.923">
  <defs>
    <style>
      .cls-1, .cls-2, .cls-5 {
        fill: none;
      }

      .cls-2 {
        stroke: #707070;
      }

      .cls-3, .cls-4 {
        stroke: none;
      }

      .cls-4 {
        fill: #707070;
      }

      .cls-6 {
        filter: url(#Path_15);
      }
    </style>
    <filter id="Path_15" x="0" y="0" width="12.658" height="16.923" filterUnits="userSpaceOnUse">
      <feOffset dy="1" input="SourceAlpha"/>
      <feGaussianBlur stdDeviation="0.5" result="blur"/>
      <feFlood flood-opacity="0.161"/>
      <feComposite operator="in" in2="blur"/>
      <feComposite in="SourceGraphic"/>
    </filter>
  </defs>
  <g id="Group_47" data-name="Group 47" transform="translate(-1021.5 -850.5)">
    <g class="cls-6" transform="matrix(1, 0, 0, 1, 1021.5, 850.5)">
      <g id="Path_15-2" data-name="Path 15" class="cls-1" transform="translate(1.5 0.5)">
        <path class="cls-3" d="M4.829,0A4.829,4.829,0,0,1,9.658,4.829c0,2.667-4.829,9.094-4.829,9.094S0,7.5,0,4.829A4.829,4.829,0,0,1,4.829,0Z"/>
        <path class="cls-4" d="M 4.828901767730713 12.21096611022949 C 5.268130779266357 11.58332538604736 5.83712911605835 10.74391746520996 6.401641845703125 9.836007118225098 C 8.437961578369141 6.560986995697021 8.657801628112793 5.243376731872559 8.657801628112793 4.828896999359131 C 8.657801628112793 2.717636823654175 6.94016170501709 0.9999969601631165 4.828901767730713 0.9999969601631165 C 2.717641830444336 0.9999969601631165 1.000001788139343 2.717636823654175 1.000001788139343 4.828896999359131 C 1.000001788139343 5.243376731872559 1.219841718673706 6.560986995697021 3.256161689758301 9.836007118225098 C 3.820674419403076 10.74391746520996 4.389672756195068 11.58332538604736 4.828901767730713 12.21096611022949 M 4.828901767730713 13.92315673828125 C 4.828901767730713 13.92315673828125 1.767730736901285e-06 7.495826721191406 1.767730736901285e-06 4.828896999359131 C 1.767730736901285e-06 2.161977052688599 2.161971807479858 -3.061370762225124e-06 4.828901767730713 -3.061370762225124e-06 C 7.495831966400146 -3.061370762225124e-06 9.657801628112793 2.161977052688599 9.657801628112793 4.828896999359131 C 9.657801628112793 7.495826721191406 4.828901767730713 13.92315673828125 4.828901767730713 13.92315673828125 Z"/>
      </g>
    </g>
    <g id="Ellipse_3" data-name="Ellipse 3" class="cls-2" transform="translate(1025.504 853.504)">
      <circle class="cls-3" cx="2.325" cy="2.325" r="2.325"/>
      <circle class="cls-5" cx="2.325" cy="2.325" r="1.825"/>
    </g>
  </g>
</svg>
